<svg xmlns="http://www.w3.org/2000/svg" viewBox="0 0 362 200" preserveAspectRatio="xMidYMid slice">
  <!-- studio, coin cuisine -->
  <defs>
    <linearGradient id="wC" x1="0" y1="0" x2="0" y2="1"><stop offset="0" stop-color="#F0F1EE"/><stop offset="1" stop-color="#DCE0DA"/></linearGradient>
    <linearGradient id="sC" x1="0" y1="0" x2="0" y2="1"><stop offset="0" stop-color="#E3EEF0"/><stop offset="1" stop-color="#BCD6D6"/></linearGradient>
    <linearGradient id="fC" x1="0" y1="0" x2="0" y2="1"><stop offset="0" stop-color="#CFC3B3"/><stop offset="1" stop-color="#B7A996"/></linearGradient>
  </defs>
  <rect width="362" height="200" fill="url(#wC)"/>
  <path d="M232 26 L330 26 L362 200 L164 200 Z" fill="#ffffff" opacity=".3"/>
  <rect y="150" width="362" height="50" fill="url(#fC)"/>
  <rect x="232" y="30" width="96" height="100" rx="2" fill="url(#sC)"/>
  <g fill="#FBFCFA"><rect x="276" y="30" width="6" height="100"/><rect x="232" y="76" width="96" height="6"/></g>
  <rect x="228" y="26" width="104" height="108" rx="3" fill="none" stroke="#FBFCFA" stroke-width="7"/>
  <g>
    <rect x="14" y="112" width="176" height="44" rx="4" fill="#E9ECE8"/>
    <rect x="14" y="106" width="176" height="9" rx="3" fill="#3F4A46"/>
    <g fill="#CBD2CC"><rect x="26" y="124" width="46" height="22" rx="4"/><rect x="80" y="124" width="46" height="22" rx="4"/><rect x="134" y="124" width="46" height="22" rx="4"/></g>
    <rect x="14" y="40" width="80" height="46" rx="4" fill="#DDE2DC"/>
    <rect x="102" y="40" width="60" height="46" rx="4" fill="#DDE2DC"/>
  </g>
  <g>
    <rect x="196" y="122" width="6" height="32" fill="#B99C7B"/>
    <rect x="176" y="112" width="46" height="10" rx="4" fill="#CDAF8C"/>
    <circle cx="212" cy="104" r="8" fill="#88A98F"/>
  </g>
</svg>
